# xmcd CD database file
#
# Track frame offsets:
#	150
#	26381
#	51800
#	75242
#	97036
#	115244
#	134478
#	157864
#	179655
#	224910
#
# Disc length: 3383 seconds
#
# Revision: 0
# Processed by: cddbd v1.5.2PL0 Copyright (c) Steve Scherf et al.
# Submitted via: CDex 1.51
#
DISCID=860d350a
DTITLE=KAREN CARROLL With The Mississipi Grave Diggers - Evolution Revolution
DYEAR=2009
DGENRE=Blues
TTITLE0=What Is Hip
TTITLE1=It Is Still Called The Blues
TTITLE2=I'm Ready
TTITLE3=Vicksburg Blues
TTITLE4=Your Love For Me
TTITLE5=Do Your Ever Think About Me
TTITLE6=My Babe
TTITLE7=A Taste Df Honey
TTITLE8=I Got My Mojo Working
TTITLE9=Just A Closer Walk With Thee
EXTD=YEAR: 2009
EXTT0=
EXTT1=
EXTT2=
EXTT3=
EXTT4=
EXTT5=
EXTT6=
EXTT7=
EXTT8=
EXTT9=
PLAYORDER=
